<?xml version="1.0" ?><svg xmlns="http://www.w3.org/2000/svg" xmlns:xlink="http://www.w3.org/1999/xlink" version="1.1" viewBox="0 0 510 510" style="enable-background:new 0 0 510 510;" xml:space="preserve"><g id="_x31_6_x2C__Saline_Via_x2C__patient_x2C__medical_equipment_x2C__injection_x2C__medical_x2C__syringe"><g><g><path style="fill:#D0EDF4;" d="M160,340v15c0,19.33-15.67,35-35,35s-35-15.67-35-35v-15H160z"/><path style="fill:#E0F1F5;" d="M210,50h-45c0-22.09-17.91-40-40-40S85,27.91,85,50H40c-16.57,0-30,13.43-30,30v240     c0,16.57,13.43,30,30,30c37.725,0,134.209,0,170,0c16.57,0,30-13.43,30-30V80C240,63.43,226.57,50,210,50z"/><path style="fill:#E27E85;" d="M500,300v40c0,11.05-8.95,20-20,20s-20-8.95-20-20v-40c0-11.05,8.95-20,20-20     C491.04,280,500,288.96,500,300z"/><polygon style="fill:#A2CAFC;" points="50,90 50,140 168.667,192.667 200,180 200,90    "/><path style="fill:#F6E17A;" d="M50,140c75,0,75,40,150,40v130H50C50,291.863,50,158.023,50,140z"/><g><path d="M210,310V90c0-5.522-4.478-10-10-10H50c-5.522,0-10,4.478-10,10v220c0,5.522,4.478,10,10,10h150      C205.522,320,210,315.522,210,310z M190,100v69.729c-28.44-1.572-43.963-9.843-60.294-18.552      c-17.821-9.505-36.205-19.3-69.706-20.934V100H190z M60,300v-20h30c5.522,0,10-4.478,10-10s-4.478-10-10-10H60v-20h10      c5.522,0,10-4.478,10-10s-4.478-10-10-10H60v-20h30c5.522,0,10-4.478,10-10s-4.478-10-10-10H60v-29.729      c28.44,1.572,43.963,9.843,60.294,18.552c17.821,9.505,36.205,19.3,69.706,20.934V300H60z"/><path d="M490,271.72V270c0-55.141-44.859-100-100-100s-100,44.859-100,100v142.5c0,42.733-34.767,77.5-77.5,77.5      S135,455.233,135,412.5v-13.634c18.431-4.2,32.591-19.738,34.716-38.866H210c22.056,0,40-17.944,40-40V80      c0-22.056-17.944-40-40-40h-36.005C169.35,17.206,149.146,0,125,0S80.65,17.206,76.005,40H40C17.944,40,0,57.944,0,80v240      c0,22.056,17.944,40,40,40h40.284c2.125,19.128,16.284,34.666,34.716,38.866V412.5c0,53.762,43.738,97.5,97.5,97.5      s97.5-43.738,97.5-97.5V270c0-44.112,35.888-80,80-80s80,35.888,80,80v1.72c-11.639,4.128-20,15.243-20,28.28v40      c0,13.036,8.361,24.152,20,28.28V410c0,5.522,4.478,10,10,10s10-4.478,10-10v-41.72c11.639-4.128,20-15.243,20-28.28v-40      C510,286.964,501.639,275.848,490,271.72z M20,320V80c0-11.028,8.972-20,20-20h45c5.522,0,10-4.478,10-10      c0-16.542,13.458-30,30-30s30,13.458,30,30c0,5.522,4.478,10,10,10h45c11.028,0,20,8.972,20,20v240c0,11.028-8.972,20-20,20      c-37.725,0-134.209,0-170,0C28.972,340,20,331.028,20,320z M100.502,360h48.996c-2.323,11.396-12.425,20-24.498,20      S102.825,371.396,100.502,360z M490,340c0,5.514-4.486,10-10,10s-10-4.486-10-10v-40c0-5.514,4.486-10,10-10s10,4.486,10,10V340      z"/></g></g></g></g><g id="Layer_1"/></svg>